<svg id="Layer_1" data-name="Layer 1" xmlns="http://www.w3.org/2000/svg" viewBox="0 0 177.1 132.2"><defs><style>.cls-1,.cls-2{fill:#fff;}.cls-2{font-size:21px;font-family:SeaweedScript-Regular, Seaweed Script;}.cls-3{fill:none;stroke:#fff;stroke-miterlimit:10;}</style></defs><title>logo7</title><path class="cls-1" d="M109.3,44a8.15,8.15,0,0,0-1.62-3.26,4.8,4.8,0,0,1-.72-.89,6.88,6.88,0,0,1-.72-3.54c-.06-2.39,0-4.34,0-5.35,0-1.49,0-2.71,0-3.5a11.58,11.58,0,0,0-2.88-.36,11.38,11.38,0,0,0-2.87.36,32.18,32.18,0,0,0,0,6.2,21.16,21.16,0,0,1,0,3.54,6.07,6.07,0,0,1-.72,2.65,4.41,4.41,0,0,1-.72.89A7.14,7.14,0,0,0,97.42,44c0,.15-.08.32-.11.5s0,.34-.06.49V74.6a2.09,2.09,0,0,0,.36.66c.82,1,2.2.71,5.75.72,2.67,0,3.85.2,5-.72a4,4,0,0,0,.72-.72q.16-14.93.35-29.85h0v0Z"/><path class="cls-1" d="M94.91,44a7.9,7.9,0,0,0-1.62-3.26,5.78,5.78,0,0,1-.72-.89,6.88,6.88,0,0,1-.72-3.54c-.06-2.39,0-4.34,0-5.35,0-1.49,0-2.71,0-3.5a11.66,11.66,0,0,0-5.75,0,33,33,0,0,0,0,6.2,21.16,21.16,0,0,1,0,3.54,5.94,5.94,0,0,1-.72,2.65,4.09,4.09,0,0,1-.72.89A7.06,7.06,0,0,0,83,44a3.33,3.33,0,0,0-.12.5c0,.18,0,.34-.06.49V74.6a2.09,2.09,0,0,0,.36.66c.83,1,2.2.71,5.76.72,2.67,0,3.85.2,5-.72a3.7,3.7,0,0,0,.72-.72q.18-14.93.35-29.85h0v0Z"/><path class="cls-1" d="M80.53,44a8.15,8.15,0,0,0-1.62-3.26,4.8,4.8,0,0,1-.72-.89,6.78,6.78,0,0,1-.72-3.54c-.07-2.39,0-4.34,0-5.35,0-1.49,0-2.71,0-3.5a11.58,11.58,0,0,0-2.88-.36,11.47,11.47,0,0,0-2.88.36,33.91,33.91,0,0,0,0,6.2,18.94,18.94,0,0,1,0,3.54A5.94,5.94,0,0,1,71,39.82a4.09,4.09,0,0,1-.72.89A7.16,7.16,0,0,0,68.65,44c0,.15-.08.32-.11.5s-.05.34-.06.49V74.6a1.9,1.9,0,0,0,.36.66c.82,1,2.19.71,5.75.72,2.67,0,3.85.2,5-.72a3.9,3.9,0,0,0,.71-.72l.36-29.85h0v0Z"/><text class="cls-2" transform="translate(63.57 103.15)">Le Lieu</text><line class="cls-3" x1="50.48" y1="83.32" x2="125.98" y2="83.32"/><path class="cls-1" d="M87.39,126.13a22.17,22.17,0,0,1-10.84-3.67l-71-49.28c-7-4.89-7.48-12.74-1-17.5L76,3.5A20.26,20.26,0,0,1,88.05,0a22.47,22.47,0,0,1,12.49,3.75l71,49.28c3.41,2.37,5.39,5.49,5.58,8.8s-1.45,6.39-4.6,8.7l-1-.72,1,.72-71.36,52.18C97.47,125.38,92.39,126.51,87.39,126.13ZM89.56,2.07C89.1,2,88.64,2,88.17,2A16.94,16.94,0,0,0,78,4.94L6.68,57.12a8.45,8.45,0,0,0-3.86,7.29C3,67.18,4.64,69.8,7.5,71.78l71,49.28c5.91,4.1,15.14,4.19,20.6.21l71.36-52.18a8.42,8.42,0,0,0,3.85-7.29c-.15-2.77-1.81-5.39-4.67-7.38l-71-49.27A18.39,18.39,0,0,0,89.56,2.07Z"/><path class="cls-1" d="M87.39,132.13a22.17,22.17,0,0,1-10.84-3.67l-71-49.28c-7-4.89-7.48-12.74-1-17.5L76,9.5A20.26,20.26,0,0,1,88.05,6a22.47,22.47,0,0,1,12.49,3.75l71,49.28c3.41,2.37,5.39,5.49,5.58,8.8s-1.45,6.39-4.6,8.7l-1-.72,1,.72-71.36,52.18C97.47,131.38,92.39,132.51,87.39,132.13ZM89.56,8.07C89.1,8,88.64,8,88.17,8A16.94,16.94,0,0,0,78,10.94L6.68,63.12a8.45,8.45,0,0,0-3.86,7.29C3,73.18,4.64,75.8,7.5,77.78l71,49.28c5.91,4.1,15.14,4.19,20.6.21l71.36-52.18a8.42,8.42,0,0,0,3.85-7.29c-.15-2.77-1.81-5.39-4.67-7.38l-71-49.27A18.39,18.39,0,0,0,89.56,8.07Z"/></svg>
